<svg xmlns="http://www.w3.org/2000/svg" width="40" height="7"><path d="M235.413 510.898h-2.474q-.102 0-.15-.043-.042-.048-.042-.15v-3.455q0-.102.042-.144.048-.048.15-.048h2.474q.102 0 .144.048.048.042.048.144v.624q0 .101-.048.149-.042.043-.144.043h-1.472v.41h1.04q.102 0 .144.048.048.043.048.144v.571q0 .101-.048.15-.042.042-.144.042h-1.04v.459h1.472q.102 0 .144.048.048.042.048.144v.624q0 .101-.048.15-.042.042-.144.042M231.302 510.898h-1.387q-.1 0-.17-.038-.064-.037-.102-.138l-.522-1.307q-.048-.117-.08-.203-.032-.09-.054-.17-.02-.08-.032-.166-.005-.09-.005-.218v-1.408q0-.102.043-.144.048-.048.15-.048h.847q.102 0 .155.048.053.042.053.144v1.472q0 .053.011.106.01.054.032.112l.25.747q.017.053.038.075.021.016.064.016h.059q.043 0 .064-.016.021-.022.037-.075l.25-.752q.022-.059.033-.112.01-.053.01-.107v-1.466q0-.102.043-.144.048-.048.15-.048h.837q.101 0 .144.048.048.042.048.144v1.408q0 .128-.01.218-.006.086-.028.166-.02.08-.053.17-.032.086-.08.203l-.523 1.307q-.037.101-.106.138-.064.038-.166.038zM226.043 510.898q-.102 0-.15-.043-.042-.048-.042-.15v-.634q0-.101.042-.144.048-.048.15-.048h.528v-1.792h-.528q-.102 0-.15-.043-.042-.048-.042-.149v-.645q0-.102.042-.144.048-.048.15-.048h2.272q.101 0 .144.048.048.042.048.144v.645q0 .101-.048.15-.043.042-.144.042h-.518v1.792h.518q.101 0 .144.048.048.043.048.144v.635q0 .101-.048.149-.043.043-.144.043zM224.25 510.898h-.863q-.102 0-.15-.043-.042-.048-.042-.15v-2.618h-.784q-.102 0-.15-.043-.042-.048-.042-.149v-.645q0-.102.042-.144.048-.048.15-.048h2.816q.101 0 .144.048.048.042.048.144v.645q0 .101-.048.15-.043.042-.144.042h-.784v2.619q0 .101-.048.149-.043.043-.144.043M221.643 510.898h-1.302q-.666 0-.992-.267-.32-.267-.32-.821v-1.659q0-.555.32-.821.326-.272.992-.272h1.302q.101 0 .144.048.048.042.048.144v.645q0 .101-.048.15-.043.042-.144.042h-1.072q-.166 0-.246.07-.08.063-.08.197v1.27q0 .132.08.196.08.06.246.06h1.072q.101 0 .144.047.048.043.048.144v.635q0 .101-.048.15-.043.042-.144.042M216.72 508.178l-.251.81h.837l-.25-.81q-.022-.048-.049-.07-.021-.02-.053-.02h-.133q-.032 0-.06.02-.02.022-.042.07m-.305 2.528q0 .101-.048.15-.042.042-.144.042h-.784q-.101 0-.15-.043-.042-.048-.042-.15v-1.407q0-.16.048-.368.053-.208.16-.486l.464-1.21q.032-.091.096-.134.07-.042.176-.042h1.435q.101 0 .165.042.07.043.102.134l.464 1.21q.106.278.154.486.053.208.053.368v1.408q0 .101-.048.15-.042.042-.144.042h-.805q-.107 0-.16-.043-.048-.048-.048-.15v-.746h-.944z" style="font-size:5.33333px;font-family:Bungee;-inkscape-font-specification:Bungee;fill:#3fbd73;fill-opacity:1;stroke-width:2;stroke-linecap:round;paint-order:stroke fill markers" transform="translate(-196 -504)"/><path d="M214.839 509.89q0 .245-.075.448-.07.197-.256.341-.181.139-.501.219t-.816.08-.816-.08-.507-.219q-.181-.144-.256-.341-.07-.203-.07-.448v-2.64q0-.102.044-.144.048-.048.149-.048h.837q.102 0 .144.048.048.042.048.144v2.432q0 .106.08.181.08.07.358.07.282 0 .362-.07.08-.075.08-.181v-2.432q0-.102.043-.144.048-.048.15-.048h.81q.101 0 .144.048.048.042.048.144zM209.713 510.898h-1.798q-.1 0-.149-.043-.043-.048-.043-.15v-3.455q0-.102.043-.144.048-.048.15-.048h1.797q.666 0 .986.266.326.267.326.822v1.664q0 .554-.326.821-.32.267-.986.267m-.779-2.822v1.814h.635q.128 0 .186-.064.064-.064.064-.198v-1.296q0-.133-.064-.192-.058-.064-.186-.064zM207.035 510.898h-2.475q-.101 0-.15-.043-.042-.048-.042-.15v-3.455q0-.102.043-.144.048-.048.149-.048h2.475q.101 0 .144.048.048.042.048.144v.624q0 .101-.048.149-.043.043-.144.043h-1.472v.41h1.04q.101 0 .144.048.048.043.048.144v.571q0 .101-.048.15-.043.042-.144.042h-1.04v.459h1.472q.101 0 .144.048.048.042.048.144v.624q0 .101-.048.15-.043.042-.144.042" style="font-size:5.33333px;font-family:Bungee;-inkscape-font-specification:Bungee;fill:#654ac6;fill-opacity:1;stroke-width:2;stroke-linecap:round;paint-order:stroke fill markers" transform="translate(-196 -504)"/><path d="M196 506a2 2 0 1 0 0 4v-.033c.008-.34.103-.673.275-.967h1.45a2 2 0 0 0 .275-1 2 2 0 0 0-2-2m-.5 1a.5.5 0 1 1 0 1 .5.5 0 0 1 0-1" style="fill:#654ac6;fill-opacity:1;stroke-width:2;stroke-linecap:round;paint-order:stroke fill markers" transform="translate(-194 -506)"/><path d="M199 513a2 2 0 1 0 0-4v.033c-.008.34-.103.673-.275.967h-1.45a2 2 0 0 0-.275 1 2 2 0 0 0 2 2m-.497-1a.5.5 0 1 1 0-1 .5.5 0 0 1 0 1" style="fill:#3fbd73;fill-opacity:1;stroke-width:2;stroke-linecap:round;paint-order:stroke fill markers" transform="translate(-194 -506)"/><path d="M194 506h40v7h-40z" style="opacity:1;fill:none;fill-opacity:1;stroke:none;stroke-width:2;stroke-linecap:round;paint-order:stroke fill markers" transform="translate(-194 -506)"/></svg>