<svg width="28" height="4" version="1.1" viewBox="0 0 28 4" xmlns="http://www.w3.org/2000/svg">
 <g transform="translate(-264,-520)">
  <rect x="264" y="520" width="28" height="4" fill="#fff" style="paint-order:stroke fill markers"/>
  <path d="m265.46 523.96q-0.62934 0-1.0027-0.34133t-0.38933-1.0133q0-0.0373 0-0.096t0-0.0907q0.016-0.42133 0.18666-0.72 0.176-0.304 0.48-0.45867 0.30934-0.15999 0.72-0.15999 0.46934 0 0.77334 0.18666 0.30933 0.18667 0.46399 0.50667 0.15467 0.32 0.15467 0.73066v0.128q0 0.0587-0.0427 0.096-0.0373 0.0373-0.0907 0.0373h-1.7067q0 5e-3 0 0.016 0 0.0107 0 0.0213 5e-3 0.15467 0.0533 0.28267 0.048 0.128 0.14933 0.20266 0.10133 0.0747 0.24533 0.0747 0.10667 0 0.176-0.032 0.0747-0.0373 0.12267-0.08 0.048-0.048 0.0747-0.08 0.048-0.0533 0.0747-0.064 0.032-0.016 0.096-0.016h0.66134q0.0533 0 0.0853 0.032 0.0373 0.0267 0.032 0.08-5e-3 0.0907-0.0907 0.21867-0.0853 0.128-0.25066 0.256-0.16 0.12266-0.40534 0.20266-0.24533 0.08-0.57066 0.08zm-0.45334-1.7227h0.90134v-0.0107q0-0.17067-0.0533-0.29867-0.048-0.128-0.15466-0.19733-0.10134-0.0693-0.24534-0.0693t-0.24533 0.0693q-0.096 0.0693-0.14933 0.19733-0.0533 0.128-0.0533 0.29867z" fill="#4156fd" stroke-linecap="round" stroke-width="2" style="paint-order:stroke fill markers"/>
  <g fill="#00ee8d" stroke-linecap="round" stroke-width="2">
   <path d="m285.78 523.91q-0.0907 0-0.13867-0.048-0.0427-0.048-0.048-0.112l-0.36266-3.4293q-5e-3 -0.0693 0.032-0.10667 0.0373-0.0373 0.096-0.0373h0.63999q0.0853 0 0.12267 0.048 0.0373 0.0427 0.0427 0.0907l0.22933 2.464 1.28-2.464q0.0213-0.048 0.0747-0.0907 0.0533-0.048 0.13866-0.048h0.71467q0.064 0 0.08 0.0533 0.0213 0.048-5e-3 0.10667l-1.8133 3.4133q-0.032 0.064-0.096 0.112-0.0587 0.048-0.15466 0.048z" style="paint-order:stroke fill markers"/>
   <path d="m283.42 523.91q-0.0587 0-0.0907-0.0373t-0.0213-0.096l0.74134-3.4667q0.0107-0.0587 0.0587-0.096t0.10134-0.0373h0.72q0.0533 0 0.0853 0.0373t0.0213 0.096l-0.74133 3.4667q-0.0107 0.0587-0.0587 0.096-0.0427 0.0373-0.096 0.0373z" style="paint-order:stroke fill markers"/>
   <path d="m281.03 523.91q-0.0587 0-0.0907-0.0373t-0.0213-0.096l0.592-2.7627h-0.94933q-0.0533 0-0.0853-0.0373-0.032-0.0427-0.0213-0.096l0.1226-0.57076q0.0107-0.0587 0.0533-0.096 0.048-0.0373 0.10667-0.0373h2.8693q0.0587 0 0.0853 0.0373 0.032 0.0373 0.0213 0.096l-0.12267 0.57067q-0.0107 0.0533-0.0587 0.096-0.0427 0.0373-0.10133 0.0373h-0.94933l-0.58667 2.7627q-0.0107 0.0587-0.0587 0.096-0.0425 0.0374-0.10117 0.0374z" style="paint-order:stroke fill markers"/>
   <path d="m278.02 523.96q-0.36267 0-0.656-0.0907-0.288-0.0907-0.48-0.272-0.192-0.18667-0.26667-0.45334-0.0747-0.272-0.016-0.62933 0.0373-0.21867 0.0907-0.46933 0.0587-0.25067 0.112-0.48 0.11733-0.464 0.36267-0.784 0.24533-0.32533 0.61866-0.49067 0.37867-0.17066 0.89067-0.17066 0.34133 0 0.63466 0.0853 0.29334 0.0853 0.496 0.256 0.208 0.16533 0.29867 0.40533 0.096 0.23467 0.0373 0.53867-0.0107 0.048-0.048 0.08-0.032 0.032-0.08 0.032h-0.72533q-0.0693 0-0.10667-0.0267-0.032-0.032-0.0427-0.112 5e-3 -0.27733-0.144-0.384-0.14934-0.10666-0.39467-0.10666-0.29333 0-0.50666 0.16533-0.21334 0.16-0.304 0.53866-0.112 0.43734-0.192 0.896-0.0693 0.37867 0.064 0.544 0.13333 0.16 0.42666 0.16 0.24533 0 0.44267-0.10666 0.19733-0.10667 0.32533-0.384 0.0427-0.08 0.0853-0.10667 0.0427-0.032 0.112-0.032h0.72534q0.048 0 0.0747 0.032t0.016 0.08q-0.0747 0.29867-0.23466 0.53867-0.15467 0.23466-0.39467 0.40533-0.23467 0.16533-0.53867 0.256-0.304 0.0853-0.68266 0.0853z" style="paint-order:stroke fill markers"/>
   <path d="m272.71 523.91q-0.064 0-0.0907-0.0533t5e-3 -0.10667l1.9787-3.424q0.032-0.0587 0.0907-0.10133 0.0587-0.048 0.14934-0.048h0.82133q0.0907 0 0.128 0.048 0.0427 0.0427 0.048 0.10133l0.52267 3.424q0.016 0.0747-0.0267 0.11733-0.0427 0.0427-0.096 0.0427h-0.64533q-0.08 0-0.11734-0.0373-0.032-0.0373-0.0427-0.0853l-0.0907-0.53333h-1.424l-0.32 0.544q-0.0267 0.0373-0.0747 0.0747-0.0422 0.0372-0.1222 0.0372zm1.5893-1.424h0.992l-0.19734-1.408z" style="paint-order:stroke fill markers"/>
  </g>
  <g stroke-linecap="round">
   <path d="m271.21 523.96c-0.25655 0-0.48275-0.0398-0.6786-0.11929-0.1931-0.0796-0.34482-0.20294-0.45515-0.37023-0.10759-0.17003-0.16138-0.38394-0.16138-0.64172v-1.6419c0-0.0302 0.011-0.0549 0.0331-0.074 0.0221-0.022 0.0469-0.0329 0.0745-0.0329h0.67446c0.0303 0 0.0552 0.0109 0.0745 0.0329 0.0221 0.0191 0.0331 0.0438 0.0331 0.074v1.752c0 0.13987 0.0345 0.24545 0.10344 0.31675 0.069 0.0713 0.16827 0.10696 0.29792 0.10696s0.22758-0.0356 0.29378-0.10696c0.069-0.0713 0.10344-0.17688 0.10344-0.31675v-1.752c0-0.0302 0.011-0.0549 0.0331-0.074 0.0221-0.022 0.0483-0.0329 0.0786-0.0329h0.67032c0.0303 0 0.0552 0.0109 0.0745 0.0329 0.0221 0.0191 0.0331 0.0438 0.0331 0.074v1.6419c0 0.25778-0.0538 0.47169-0.16137 0.64172-0.10758 0.16729-0.25792 0.2907-0.45101 0.37023-0.1931 0.0796-0.41654 0.11929-0.67033 0.11929z" fill="#4156fd" stroke-width="1.5471" style="paint-order:stroke fill markers"/>
   <path d="m267.23 523.96c-0.0276 0-0.0524-9e-3 -0.0745-0.0287-0.0221-0.022-0.0331-0.048-0.0331-0.0782v-2.6656c0-0.0302 0.011-0.0549 0.0331-0.074 0.0221-0.022 0.0469-0.0329 0.0745-0.0329h1.1338c0.26759 0 0.49931 0.0439 0.69516 0.13164 0.19585 0.085 0.35032 0.21117 0.46343 0.37846 0.11309 0.16728 0.17378 0.37297 0.18206 0.61704 5e-3 0.11792 8e-3 0.22214 8e-3 0.31263 0 0.0905-3e-3 0.19334-8e-3 0.30853-0.011 0.25778-0.0703 0.47033-0.17793 0.63761-0.10482 0.16728-0.25378 0.29206-0.44688 0.37433-0.19309 0.0796-0.42481 0.1193-0.69514 0.1193zm0.77976-0.6047h0.35373c0.0916 0 0.16924-0.017 0.23305-0.051 0.0638-0.034 0.11371-0.0867 0.14982-0.15775 0.0361-0.0742 0.0555-0.16854 0.0582-0.28299 3e-3 -0.0897 4e-3 -0.17011 4e-3 -0.24125 3e-3 -0.0711 3e-3 -0.14221 0-0.2134 0-0.0712-1e-3 -0.15003-4e-3 -0.23661-5e-3 -0.17011-0.0498-0.30487-0.13318-0.38219-0.0805-0.0773-0.19004-0.11598-0.32876-0.11598h-0.33293z" fill="#4156fd" stroke-width="1.5471" style="paint-order:stroke fill markers"/>
   <path d="m289.54 523.96q-0.336 0-0.624-0.0907t-0.48533-0.272q-0.19733-0.18134-0.28267-0.45334-0.08-0.272-0.0213-0.63466 0.0427-0.22934 0.0907-0.45867 0.0533-0.22933 0.10666-0.464 0.176-0.72 0.63467-1.0933t1.2373-0.37333q0.336 0 0.61867 0.096 0.288 0.0907 0.48533 0.27733 0.20267 0.18667 0.28267 0.45867 0.0853 0.27199 0.0213 0.63466-0.0373 0.23467-0.0907 0.464-0.048 0.22933-0.10133 0.45867-0.18133 0.73066-0.64 1.0933-0.45866 0.35733-1.232 0.35733zm0.0693-0.768q0.288 0 0.50666-0.17066 0.21867-0.17067 0.30934-0.544 0.0587-0.23467 0.10133-0.44267 0.048-0.208 0.0853-0.432 0.0693-0.37333-0.064-0.544-0.13333-0.17066-0.42133-0.17066t-0.50667 0.17066q-0.21333 0.17067-0.304 0.544-0.0587 0.224-0.10666 0.432-0.0427 0.208-0.0853 0.44267-0.064 0.37333 0.064 0.544 0.128 0.17066 0.42134 0.17066z" fill="#00ee8d" stroke-width="2" style="paint-order:stroke fill markers" aria-label="O"/>
  </g>
 </g>
</svg>
