<svg xmlns="http://www.w3.org/2000/svg" xmlns:xlink="http://www.w3.org/1999/xlink" xml:space="preserve" viewBox="0 0 192 64" width="64" height="64">
    <view id="smear1" viewBox="0 0 64 64" />
    <view id="smear2" viewBox="64 0 64 64" />
    <view id="smear3" viewBox="128 0 64 64" />
    <filter id="blur">
        <feGaussianBlur in="SourceGraphic" stdDeviation="0 20" />
    </filter>
    <path d="M0 0h64v64H0z" style="fill:none;stroke:none;stroke-width:4;stroke-linecap:round;paint-order:stroke fill markers"/>
    <path filter="url(#blur)" fill="#00000044" d="M15.395 12.939c-.492.03-.373.583-.409.927q-.015.573-.02 1.147c-.422.1-.405.606-.53.94a35 35 0 0 0-.841 4.414c-.078-.447-.059-.908-.128-1.353-.045-1.066-.067-2.152-.134-3.224-.05-.621-.04-1.272-.245-1.861-.299-.057-.24.405-.311.61-.177 1.623-.202 3.26-.201 4.892.034 1.666.015 3.343.274 4.992.074.274.083.592.272.81.353.253.703-.175.587-.523-.052-.823-.143-1.644-.171-2.468.453.256.622-.318.635-.66.11-.859.218-1.718.366-2.57-.016 1.83-.073 3.667.111 5.492.115 1.03.113 2.076.309 3.096.096.29.18-.187.185-.308.22-1.82-.076-3.645-.08-5.467.247.366.396-.332.432-.546.057-.3.086-.667.1-.17.067 1.155.2 2.307.31 3.457a53 53 0 0 1-.13 1.694c.212.452.683-.002.652-.308.01-.637.145-1.267.173-1.906.157-2.169.326-4.337.426-6.509.048.672.142 1.345.16 2.015-.232 1.368-.234 2.762-.251 4.145.008 1.116-.072 2.284.367 3.336.122.319.27-.02.233-.236.037-1.013-.013-2.028.004-3.042.021.196.188.654.27.245.126-.373.147-.773.175-1.165.383.143.398-.31.332-.565-.033-.796-.058-1.608-.28-2.378-.267-.107-.16-.422-.208-.665-.101-1.138-.23-2.274-.35-3.41-.275-.515-.675.085-.548.45-.225-.093-.273.331-.32.508-.248 1.634-.38 3.284-.516 4.931-.015.322-.032.35-.048.009-.09-.935-.107-1.879-.241-2.808-.153-.27-.01-.602-.036-.9.076-1.57.084-3.144.003-4.714 0-.199-.18-.362-.378-.354m3.202.535c-.226.197-.305.547-.374.846-.189.827-.15 1.682-.253 2.519-.281.542.53.297.343.733-.005 1.664.022 3.334.198 4.99-.05.844-.05 1.697.027 2.537.137-.037.063-.323.12-.455q.074-.526.132-1.054c.252.064.073.42.118.627-.018 1.066-.036 2.135.014 3.201-.008.177.061.47.3.414.268-.098.178-.467.217-.694.016-1.514.016-3.028.069-4.542.02-1.703.04-3.416-.195-5.107-.085-.412-.138-.892-.457-1.19-.195-.034-.039-.383-.067-.567.036-.745.17-1.544-.135-2.239zm1.56.19c-.325.032-.427.376-.573.617-.086.223.28.335.356.114.103-.05.045.335.071.456.022 1.573-.023 3.146.024 4.718.03 1.205.178 2.407.444 3.582.116.364.218.747.466 1.047.166-.062.044-.35.07-.51a52 52 0 0 1-.19-3.358c.102.989.118 2.01.498 2.944.288.093.16-.421.204-.614-.043-1.267-.27-2.523-.264-3.793-.038-.472-.623.005-.457-.51-.019-1.364.057-2.737-.114-4.093-.036-.32-.176-.598-.534-.6m-1.426 2.961c.152.88.266 1.768.29 2.661-.244-.088-.286-.063-.26-.405-.024-.658-.007-1.32-.08-1.974.027-.092.04-.187.05-.282m3.308.338c-.331.064-.148.447-.179.68.043 2.542-.068 5.091.163 7.627.236.229.178-.326.21-.488.158-2.207.106-4.424.056-6.635-.023-.35-.005-.705-.055-1.052-.025-.086-.115-.129-.195-.132m-7.111.082c-.019.365-.025.751-.05 1.102-.335.028-.049-.387-.06-.596q.052-.254.11-.506m4.108 3.577c-.01.57-.037 1.138-.064 1.706-.085-.565.048-1.138.064-1.706" transform="translate(-31.031 -41.615)scale(3.61059)"/>
    <path d="M64 0h64v64H64z" style="fill:none;stroke:none;stroke-width:4;stroke-linecap:round;paint-order:stroke fill markers"/>
    <path filter="url(#blur)" fill="#00000088" d="M35.633 12.774c-.387.033-.202.424-.15.656.277 1.194.487 2.412.559 3.635a51 51 0 0 0-.256 4.092v.794c-.102-1.503-.216-3.005-.282-4.51.068-.437-.457-.855-.804-.475-.193.2.015.428.015.645.11 2.71.374 5.412.646 8.11.09.657.175 1.325.39 1.954.17-.05.097-.383.148-.55.082-1.235.021-2.474-.032-3.709.355.37.645-.147.57-.49.007-.527.148-1.042.182-1.569q.051-.541.083-1.086c.066.573.047 1.206.38 1.695.283.03.102.385.146.59-.016.972-.073 1.951.059 2.917.207.562.671-.028.56-.4.113-2.426.13-4.855.207-7.281.02-1.161.062-2.323.057-3.484-.178-.5-.573.013-.529.336-.22 1.724-.234 3.467-.29 5.202.001.398-.023-.02-.04-.19a55 55 0 0 0-.232-2.77c-.21-.177-.35-.146-.257-.485-.008-.284.182-.7-.192-.821-.241.014-.125-.376-.21-.548-.129-.707-.24-1.431-.514-2.098-.04-.084-.11-.163-.214-.16m-1.414 2.404c-.373.032-.298.484-.375.75-.299 2.447-.592 4.898-.73 7.361-.035.554-.008 1.11-.033 1.663-.224.429.687.472.571-.022.036-1.197.08-2.394.195-3.586a192 192 0 0 1 .343-3.337c.042 1.583.298 3.148.496 4.716.063.868-.024 1.74-.188 2.592-.073.242.255.45.409.212.202-.265.025-.595.122-.893.163-.971-.083-1.941-.193-2.903-.303-2-.473-4.03-.364-6.052.064-.214.046-.496-.253-.501m-1.204 1.963c-.326.083-.24.48-.327.732.146.2.07.46.072.704-.137 2.518-.426 5.026-.487 7.548.158.156.143-.259.186-.376.403-2.232.656-4.488.815-6.75.023-.548.076-1.1.031-1.648a.32.32 0 0 0-.29-.21m6.327.103c-.453.033-.364.548-.428.869-.204 1.873-.491 3.737-.625 5.617-.006.35-.013.704.044 1.05.349.41.568-.159.511-.48.02-.401.088-.798.146-1.196.019.687.038 1.375.07 2.062 0 .442.335.316.43-.022.282-.902.212-1.867.243-2.8-.003-1.571.03-3.142.004-4.713a.383.383 0 0 0-.395-.387" transform="translate(-34.473 -41.415)scale(3.61059)"/>
    <path d="M128 0h64v64h-64z" style="fill:none;stroke:none;stroke-width:4;stroke-linecap:round;paint-order:stroke fill markers"/>
    <path filter="url(#blur)" fill="#00000044" d="M53.853 12.803c-.44.05-.366.569-.42.892a183 183 0 0 0-.45 4.544c-.054-.924-.067-1.857-.237-2.77-.267-.495-.808.144-.496.465.103 1.588.126 3.181.09 4.771-.036 1.183-.184 2.358-.32 3.532-.201.443.52.855.585.252.221-1.207.351-2.43.4-3.655.23.33.545-.275.49-.2.083 1.982.038 3.969.106 5.952.034.33.038.695.206.98.154-.062.154-.319.197-.476.126-.828.08-1.671.09-2.506.026.198.028.43.115.603.164-.387.186-.851.243-1.276q.094-.79.166-1.58c-.006 1.062-.077 2.123-.079 3.185-.08.304.34.515.352.125.237-1.192.234-2.414.242-3.625a16 16 0 0 0-.207-2.457c-.141-.049-.01-.322-.036-.467.075-1.065.155-2.141.051-3.205-.212-.297-.4.083-.354.31-.084 2.29-.363 4.57-.494 6.857-.01.307-.01.19-.013-.048-.027-1.417-.01-2.843-.208-4.25-.053-.261-.27-.404-.153-.695.156-1.407.304-2.815.496-4.217.005-.34.174-.796-.176-1.011a.4.4 0 0 0-.186-.03m1.777.772c-.32.068-.157.451-.142.675.323 1.595.489 3.214.666 4.83-.048-.314-.465-.145-.315.117-.08 1.53-.21 3.057-.338 4.584-.016.358-.05.73.026 1.081.266.203.295-.186.29-.365q.084-.644.16-1.289c.043.18.056.381.136.543-.026-.412-.151-.833-.054-1.25.085-.973.176-1.95.157-2.929.066.394.134.797.288 1.165.202-.057.097-.426.142-.616.009-1.154-.175-2.3-.298-3.445-.126-1.006-.359-1.996-.525-2.995a.2.2 0 0 0-.193-.106m2.238.703c-.266.007-.28.314-.409.49-.043.222.25.27.14.527-.03 1.212.236 2.406.289 3.614.068 1.031.041 2.07.181 3.095.023.136.189.52.29.254.224-.475.167-1.035.208-1.554.006-.304 0-.651.002-.927.118.197.044.476.073.706.03 1.475-.036 2.954.05 4.427.05.258.072.526.162.774.175-.046.13-.375.192-.541.127-.82.07-1.654.087-2.48.39.095.389-.351.392-.608.033-1.426.035-2.852.018-4.278-.12-.634-.82-.165-.652.303v1.335c-.217-.064-.397.263-.34-.098-.045-1.48-.328-2.94-.387-4.418-.03-.225.009-.589-.296-.621m-.651 4.17c-.137.121-.076.379-.128.557-.187 1.496-.149 3.014-.39 4.504-.255.388.457.512.43.045.19-.87.202-1.77.25-2.659a15 15 0 0 0-.098-2.383c.047-.075-.07-.031-.064-.065" transform="translate(-38.316 -38.62)scale(3.61059)"/>
</svg>
