<?xml version="1.0" encoding="UTF-8" standalone="no"?>
<!-- Created with Inkscape (http://www.inkscape.org/) -->

<svg
   width="210mm"
   height="297mm"
   viewBox="0 0 210 297"
   version="1.1"
   id="svg1"
   sodipodi:docname="valsan.svg"
   inkscape:version="1.3.2 (091e20ef0f, 2023-11-25)"
   xmlns:inkscape="http://www.inkscape.org/namespaces/inkscape"
   xmlns:sodipodi="http://sodipodi.sourceforge.net/DTD/sodipodi-0.dtd"
   xmlns="http://www.w3.org/2000/svg"
   xmlns:svg="http://www.w3.org/2000/svg">
  <sodipodi:namedview
     id="namedview1"
     pagecolor="#ffffff"
     bordercolor="#000000"
     borderopacity="0.25"
     inkscape:showpageshadow="2"
     inkscape:pageopacity="0.0"
     inkscape:pagecheckerboard="0"
     inkscape:deskcolor="#d1d1d1"
     inkscape:document-units="mm"
     showgrid="true"
     inkscape:zoom="5.7299663"
     inkscape:cx="523.21424"
     inkscape:cy="309.07686"
     inkscape:window-width="1920"
     inkscape:window-height="1008"
     inkscape:window-x="0"
     inkscape:window-y="0"
     inkscape:window-maximized="1"
     inkscape:current-layer="layer1">
    <inkscape:grid
       id="grid1"
       units="mm"
       originx="0"
       originy="0"
       spacingx="0.99999998"
       spacingy="1"
       empcolor="#0099e5"
       empopacity="0.30196078"
       color="#0099e5"
       opacity="0.14901961"
       empspacing="5"
       dotted="false"
       gridanglex="30"
       gridanglez="30"
       visible="true" />
  </sodipodi:namedview>
  <defs
     id="defs1" />
  <g
     inkscape:label="Capa 1"
     inkscape:groupmode="layer"
     id="layer1">
    <circle
       style="fill:#f4eed7;fill-opacity:1;stroke:none;stroke-width:0.529;stroke-linecap:round;stroke-linejoin:round;stroke-dasharray:none;stroke-opacity:1;paint-order:stroke fill markers"
       id="path64"
       cx="122.5"
       cy="81.5"
       r="3.5" />
    <circle
       style="fill:#f4eed7;stroke:none;stroke-width:0.529;stroke-linecap:round;stroke-linejoin:round;stroke-dasharray:none;paint-order:stroke fill markers"
       id="path27"
       cx="122.5"
       cy="72.5"
       r="4.5" />
    <path
       style="fill:none;stroke:#000000;stroke-width:1.058;stroke-linecap:round;stroke-linejoin:round;stroke-dasharray:none;paint-order:stroke fill markers"
       d="M 91.000002,69.999999 V 80 l 4.000001,-10.000001"
       id="path8"
       sodipodi:nodetypes="ccc" />
    <path
       style="fill:none;stroke:#000000;stroke-width:1.058;stroke-linecap:round;stroke-linejoin:round;stroke-dasharray:none;paint-order:stroke fill markers"
       d="M 93.000004,80 97.000001,69.999997 V 79.999998"
       id="path9"
       sodipodi:nodetypes="ccc" />
    <path
       style="fill:none;stroke:#000000;stroke-width:1.058;stroke-linecap:round;stroke-linejoin:round;stroke-dasharray:none;paint-order:stroke fill markers"
       d="m 97.000001,69.999997 v 10.000001 l 5.999999,0"
       id="path10"
       sodipodi:nodetypes="ccc" />
    <path
       style="fill:none;stroke:#000000;stroke-width:1.058;stroke-linecap:round;stroke-linejoin:round;stroke-dasharray:none;paint-order:stroke fill markers"
       d="M 99.000002,77.999998 V 69.999997"
       id="path11"
       sodipodi:nodetypes="cc" />
    <path
       style="fill:none;stroke:#000000;stroke-width:1.058;stroke-linecap:round;stroke-linejoin:round;stroke-dasharray:none;paint-order:stroke fill markers"
       d="M 101,77.999998 V 69.999997"
       id="path13"
       sodipodi:nodetypes="cc" />
    <path
       style="fill:none;stroke:#000000;stroke-width:1.058;stroke-linecap:round;stroke-linejoin:round;stroke-dasharray:none;paint-order:stroke fill markers"
       d="M 103,77.999998 V 69.999997"
       id="path14"
       sodipodi:nodetypes="cc" />
    <path
       style="fill:none;stroke:#000000;stroke-width:0.529;stroke-linecap:round;stroke-linejoin:round;stroke-dasharray:none;paint-order:stroke fill markers"
       d="m 109,69.999998 v 5 l 2,-5.000001 v 5 l 3,1e-6"
       id="path15"
       sodipodi:nodetypes="ccccc" />
    <path
       style="fill:none;stroke:#000000;stroke-width:0.529;stroke-linecap:round;stroke-linejoin:round;stroke-dasharray:none;paint-order:stroke fill markers"
       d="m 112,73.999997 v -4"
       id="path16" />
    <path
       style="fill:none;stroke:#000000;stroke-width:0.529;stroke-linecap:round;stroke-linejoin:round;stroke-dasharray:none;paint-order:stroke fill markers"
       d="m 113,69.999997 v 4"
       id="path17" />
    <path
       style="fill:none;stroke:#000000;stroke-width:0.529;stroke-linecap:round;stroke-linejoin:round;stroke-dasharray:none;paint-order:stroke fill markers"
       d="m 114,73.999997 v -4"
       id="path18" />
    <g
       id="g27">
      <path
         style="fill:none;stroke:#45ccc7;stroke-width:0.529;stroke-linecap:round;stroke-linejoin:round;stroke-dasharray:none;stroke-opacity:1;paint-order:stroke fill markers"
         d="m 120,69.999998 0,5 2,-5.000001 v 5 l 3,1e-6"
         id="path23"
         sodipodi:nodetypes="ccccc" />
      <path
         style="fill:none;stroke:#00222b;stroke-width:0.529;stroke-linecap:round;stroke-linejoin:round;stroke-dasharray:none;paint-order:stroke fill markers"
         d="m 123,73.999997 v -4"
         id="path24" />
      <path
         style="fill:none;stroke:#ef64e2;stroke-width:0.529;stroke-linecap:round;stroke-linejoin:round;stroke-dasharray:none;paint-order:stroke fill markers;stroke-opacity:1"
         d="m 124,69.999997 v 4"
         id="path25" />
      <path
         style="fill:none;stroke:#00222b;stroke-width:0.529;stroke-linecap:round;stroke-linejoin:round;stroke-dasharray:none;paint-order:stroke fill markers"
         d="m 125,73.999997 v -4"
         id="path26" />
    </g>
    <g
       id="g35"
       transform="translate(7.5800337,-1.3255855)">
      <path
         style="font-weight:bold;font-size:1.41111px;font-family:Rubik;-inkscape-font-specification:'Rubik Bold';fill:#00222b;fill-opacity:1;stroke-width:0.529;stroke-linecap:round;stroke-linejoin:round;paint-order:stroke fill markers"
         d="m 124.20094,67.327784 q -0.0155,0 -0.0254,-0.0099 -0.01,-0.0099 -0.01,-0.0254 v -0.663222 q 0,-0.01552 0.01,-0.0254 0.01,-0.0099 0.0254,-0.0099 h 0.16228 q 0.0155,0 0.0254,0.0099 0.01,0.0099 0.01,0.0254 v 0.05362 q 0.0367,-0.04374 0.096,-0.07338 0.0593,-0.02963 0.1397,-0.02963 0.0819,0 0.14394,0.03669 0.0635,0.03669 0.0988,0.108655 0.0367,0.07056 0.0367,0.173567 v 0.3937 q 0,0.01552 -0.0113,0.0254 -0.01,0.0099 -0.024,0.0099 h -0.1778 q -0.0141,0 -0.0254,-0.0099 -0.01,-0.0099 -0.01,-0.0254 v -0.385233 q 0,-0.06632 -0.0325,-0.1016 -0.031,-0.03669 -0.0931,-0.03669 -0.0579,0 -0.0931,0.03669 -0.0339,0.03528 -0.0339,0.1016 v 0.385233 q 0,0.01552 -0.0113,0.0254 -0.01,0.0099 -0.024,0.0099 z"
         id="path35" />
      <path
         style="font-weight:bold;font-size:1.41111px;font-family:Rubik;-inkscape-font-specification:'Rubik Bold';fill:#ef64e2;fill-opacity:1;stroke-width:0.529;stroke-linecap:round;stroke-linejoin:round;paint-order:stroke fill markers"
         d="m 123.55326,67.341896 q -0.0762,0 -0.13688,-0.02822 -0.0593,-0.02963 -0.0945,-0.07902 -0.0353,-0.04939 -0.0353,-0.111478 0,-0.100188 0.0819,-0.158044 0.0818,-0.05927 0.21731,-0.08043 l 0.17639,-0.02681 v -0.01976 q 0,-0.0508 -0.0212,-0.07761 -0.0212,-0.02681 -0.0776,-0.02681 -0.0395,0 -0.0649,0.01552 -0.024,0.01552 -0.0381,0.04233 -0.0127,0.01834 -0.0353,0.01834 h -0.15804 q -0.0155,0 -0.024,-0.0085 -0.008,-0.0099 -0.007,-0.02258 0,-0.0254 0.0183,-0.05786 0.0198,-0.03387 0.0593,-0.06632 0.0395,-0.03246 0.1016,-0.05362 0.0621,-0.02117 0.14958,-0.02117 0.0917,0 0.15663,0.02117 0.0649,0.02117 0.10443,0.05927 0.0409,0.0381 0.0607,0.09031 0.0198,0.0508 0.0198,0.112889 v 0.428978 q 0,0.01552 -0.0113,0.0254 -0.01,0.0099 -0.024,0.0099 h -0.16369 q -0.0155,0 -0.0254,-0.0099 -0.01,-0.0099 -0.01,-0.0254 v -0.04939 q -0.0183,0.02681 -0.0494,0.04939 -0.0311,0.02258 -0.0734,0.03528 -0.0409,0.01411 -0.096,0.01411 z m 0.0663,-0.160867 q 0.0409,0 0.0734,-0.01693 0.0339,-0.01834 0.0522,-0.05503 0.0198,-0.0381 0.0198,-0.09454 v -0.01976 l -0.11995,0.02117 q -0.0663,0.01129 -0.0974,0.03528 -0.0296,0.02258 -0.0296,0.05362 0,0.02399 0.0141,0.04092 0.0141,0.01693 0.0367,0.02681 0.0226,0.0085 0.0508,0.0085 z"
         id="path34" />
      <path
         style="font-weight:bold;font-size:1.41111px;font-family:Rubik;-inkscape-font-specification:'Rubik Bold';fill:#00222b;fill-opacity:1;stroke-width:0.529;stroke-linecap:round;stroke-linejoin:round;paint-order:stroke fill markers"
         d="m 122.85476,67.341896 q -0.0917,0 -0.15663,-0.01976 -0.0635,-0.02117 -0.10442,-0.0508 -0.0395,-0.02963 -0.0593,-0.06068 -0.0198,-0.03245 -0.0212,-0.05503 -0.001,-0.01552 0.01,-0.0254 0.0113,-0.01129 0.024,-0.01129 h 0.16087 q 0.004,0 0.007,0.0014 0.003,0.0014 0.008,0.0056 0.0183,0.0099 0.0367,0.0254 0.0183,0.01411 0.0423,0.0254 0.024,0.01129 0.0579,0.01129 0.0395,0 0.0663,-0.01552 0.0268,-0.01552 0.0268,-0.04657 0,-0.02258 -0.0127,-0.03669 -0.0127,-0.01552 -0.0522,-0.02963 -0.0381,-0.01411 -0.11571,-0.02822 -0.0734,-0.01693 -0.12841,-0.04374 -0.055,-0.02822 -0.0847,-0.07197 -0.0296,-0.04515 -0.0296,-0.108655 0,-0.05644 0.0367,-0.108656 0.0367,-0.05221 0.10724,-0.08467 0.0706,-0.03387 0.17357,-0.03387 0.0818,0 0.14111,0.01976 0.0607,0.01834 0.1016,0.04798 0.0423,0.02963 0.0635,0.06068 0.0212,0.03104 0.0226,0.05644 0.001,0.01411 -0.008,0.0254 -0.01,0.0099 -0.0226,0.0099 h -0.14675 q -0.006,0 -0.0113,-0.0014 -0.006,-0.0028 -0.01,-0.0056 -0.0169,-0.0085 -0.0339,-0.02258 -0.0169,-0.01411 -0.0395,-0.0254 -0.0226,-0.01129 -0.0564,-0.01129 -0.0381,0 -0.0593,0.01693 -0.0212,0.01693 -0.0212,0.04375 0,0.01834 0.0113,0.03387 0.0127,0.01552 0.0494,0.02822 0.0381,0.0127 0.11712,0.02822 0.0974,0.01552 0.15523,0.0508 0.0579,0.03387 0.0818,0.08043 0.024,0.04516 0.024,0.09596 0,0.06773 -0.0409,0.119944 -0.0395,0.05221 -0.11854,0.08184 -0.079,0.02822 -0.19191,0.02822 z"
         id="path33" />
      <path
         style="font-weight:bold;font-size:1.41111px;font-family:Rubik;-inkscape-font-specification:'Rubik Bold';fill:#45ccc7;stroke-width:0.529;stroke-linecap:round;stroke-linejoin:round;paint-order:stroke fill markers"
         d="m 122.18449,67.327786 q -0.0155,0 -0.0254,-0.0099 -0.01,-0.0099 -0.01,-0.0254 v -0.931333 q 0,-0.01552 0.01,-0.0254 0.01,-0.0099 0.0254,-0.0099 h 0.16651 q 0.0155,0 0.0254,0.0099 0.01,0.0099 0.01,0.0254 v 0.931333 q 0,0.01552 -0.01,0.0254 -0.01,0.0099 -0.0254,0.0099 z"
         id="path32" />
      <path
         style="font-weight:bold;font-size:1.41111px;font-family:Rubik;-inkscape-font-specification:'Rubik Bold';fill:#45ccc7;stroke-width:0.529;stroke-linecap:round;stroke-linejoin:round;paint-order:stroke fill markers"
         d="m 121.53681,67.341898 q -0.0762,0 -0.13688,-0.02822 -0.0593,-0.02963 -0.0945,-0.07902 -0.0353,-0.04939 -0.0353,-0.111478 0,-0.100188 0.0818,-0.158044 0.0819,-0.05927 0.21731,-0.08043 l 0.17639,-0.02681 v -0.01976 q 0,-0.0508 -0.0212,-0.07761 -0.0212,-0.02681 -0.0776,-0.02681 -0.0395,0 -0.0649,0.01552 -0.024,0.01552 -0.0381,0.04233 -0.0127,0.01834 -0.0353,0.01834 h -0.15805 q -0.0155,0 -0.024,-0.0085 -0.008,-0.0099 -0.007,-0.02258 0,-0.0254 0.0183,-0.05786 0.0198,-0.03387 0.0593,-0.06632 0.0395,-0.03246 0.1016,-0.05362 0.0621,-0.02117 0.14958,-0.02117 0.0917,0 0.15663,0.02117 0.0649,0.02117 0.10442,0.05927 0.0409,0.0381 0.0607,0.09031 0.0197,0.0508 0.0197,0.112889 v 0.428978 q 0,0.01552 -0.0113,0.0254 -0.01,0.0099 -0.024,0.0099 h -0.16369 q -0.0155,0 -0.0254,-0.0099 -0.01,-0.0099 -0.01,-0.0254 v -0.04939 q -0.0183,0.02681 -0.0494,0.04939 -0.031,0.02258 -0.0734,0.03528 -0.0409,0.01411 -0.096,0.01411 z m 0.0663,-0.160867 q 0.0409,0 0.0734,-0.01693 0.0339,-0.01834 0.0522,-0.05503 0.0198,-0.0381 0.0198,-0.09454 v -0.01976 l -0.11994,0.02117 q -0.0663,0.01129 -0.0974,0.03528 -0.0296,0.02258 -0.0296,0.05362 0,0.02399 0.0141,0.04092 0.0141,0.01693 0.0367,0.02681 0.0226,0.0085 0.0508,0.0085 z"
         id="path31" />
      <path
         style="font-weight:bold;font-size:1.41111px;font-family:Rubik;-inkscape-font-specification:'Rubik Bold';fill:#45ccc7;stroke-width:0.529;stroke-linecap:round;stroke-linejoin:round;paint-order:stroke fill markers"
         d="m 120.77022,67.327788 q -0.0212,0 -0.031,-0.0099 -0.01,-0.01129 -0.0169,-0.0254 l -0.2667,-0.654755 q -0.003,-0.0056 -0.003,-0.0127 0,-0.0127 0.008,-0.02117 0.01,-0.0099 0.024,-0.0099 h 0.15945 q 0.0183,0 0.0282,0.0099 0.01,0.0099 0.0127,0.01976 l 0.15945,0.43321 0.16087,-0.43321 q 0.003,-0.0099 0.0127,-0.01976 0.01,-0.0099 0.0282,-0.0099 h 0.15945 q 0.0127,0 0.0226,0.0099 0.01,0.0085 0.01,0.02117 0,0.0071 -0.003,0.0127 l -0.2667,0.654755 q -0.006,0.01411 -0.0169,0.0254 -0.01,0.0099 -0.0325,0.0099 z"
         id="text27" />
    </g>
    <path
       style="fill:none;stroke:#000000;stroke-width:0.529;stroke-linecap:round;stroke-linejoin:round;stroke-dasharray:none;stroke-opacity:1;paint-order:stroke fill markers"
       d="M 85.000001,59.999998 88,64.999996 91.000002,59.999998"
       id="path28" />
    <path
       style="fill:none;stroke:#000000;stroke-width:0.529;stroke-linecap:round;stroke-linejoin:round;stroke-dasharray:none;stroke-opacity:1;paint-order:stroke fill markers"
       d="m 89.000003,64.999971 2.999999,-4.999998 3.000002,4.999998"
       id="path29" />
    <path
       style="fill:none;stroke:#000000;stroke-width:0.529;stroke-linecap:round;stroke-linejoin:round;stroke-dasharray:none;stroke-opacity:1;paint-order:stroke fill markers"
       d="M 93.000001,59.999998 96,64.999996 h 2.000001"
       id="path30" />
    <text
       xml:space="preserve"
       style="font-style:normal;font-variant:normal;font-weight:bold;font-stretch:normal;font-size:1.41111px;font-family:Rubik;-inkscape-font-specification:'Rubik Bold';fill:#00222b;fill-opacity:1;stroke:none;stroke-width:0.529;stroke-linecap:round;stroke-linejoin:round;stroke-dasharray:none;stroke-opacity:1;paint-order:stroke fill markers"
       x="128"
       y="68"
       id="text35"><tspan
         sodipodi:role="line"
         id="tspan35"
         style="stroke:none;stroke-width:0.529"
         x="128"
         y="68">valiii</tspan></text>
    <text
       xml:space="preserve"
       style="font-style:normal;font-variant:normal;font-weight:bold;font-stretch:normal;font-size:1.41111px;font-family:Rubik;-inkscape-font-specification:'Rubik Bold';fill:#00222b;fill-opacity:1;stroke:none;stroke-width:0.529;stroke-linecap:round;stroke-linejoin:round;stroke-dasharray:none;stroke-opacity:1;paint-order:stroke fill markers"
       x="128"
       y="70"
       id="text36"><tspan
         sodipodi:role="line"
         id="tspan36"
         style="stroke:none;stroke-width:0.529"
         x="128"
         y="70">val3</tspan></text>
    <path
       style="fill:none;stroke:#000000;stroke-width:0.529;stroke-linecap:round;stroke-linejoin:round;stroke-dasharray:none;paint-order:stroke fill markers"
       d="m 109,79.999998 0,3 2,-3 0,2.999999 3,1e-6"
       id="path39"
       sodipodi:nodetypes="ccccc" />
    <path
       style="fill:none;stroke:#000000;stroke-width:0.529;stroke-linecap:round;stroke-linejoin:round;stroke-dasharray:none;paint-order:stroke fill markers"
       d="m 112,81.999997 2,1e-6"
       id="path40"
       sodipodi:nodetypes="cc" />
    <path
       style="fill:none;stroke:#000000;stroke-width:0.529;stroke-linecap:round;stroke-linejoin:round;stroke-dasharray:none;paint-order:stroke fill markers"
       d="m 112,81.999997 2,1e-6"
       id="path42"
       sodipodi:nodetypes="cc" />
    <path
       style="fill:none;stroke:#000000;stroke-width:0.529;stroke-linecap:round;stroke-linejoin:round;stroke-dasharray:none;paint-order:stroke fill markers"
       d="m 112,80.999998 2,10e-7"
       id="path43"
       sodipodi:nodetypes="cc" />
    <path
       style="fill:none;stroke:#000000;stroke-width:0.529;stroke-linecap:round;stroke-linejoin:round;stroke-dasharray:none;paint-order:stroke fill markers"
       d="m 112,79.999998 2,10e-7"
       id="path44"
       sodipodi:nodetypes="cc" />
    <path
       style="fill:#00222b;fill-opacity:1;stroke:#000000;stroke-width:0.529;stroke-linecap:round;stroke-linejoin:round;stroke-dasharray:none;stroke-opacity:1;paint-order:stroke fill markers"
       d="M 109,87.999998 V 91"
       id="path49" />
    <path
       style="fill:#00222b;fill-opacity:1;stroke:#000000;stroke-width:0.529;stroke-linecap:round;stroke-linejoin:round;stroke-dasharray:none;stroke-opacity:1;paint-order:stroke fill markers"
       d="m 110,88.999998 h 2"
       id="path50" />
    <path
       style="fill:none;fill-opacity:1;stroke:#000000;stroke-width:0.529;stroke-linecap:round;stroke-linejoin:round;stroke-dasharray:none;stroke-opacity:1;paint-order:stroke fill markers"
       d="M 111,87.999998 V 91 h -1 v -1.000001 h 2"
       id="path51" />
    <path
       style="fill:none;fill-opacity:1;stroke:#000000;stroke-width:0.529;stroke-linecap:round;stroke-linejoin:round;stroke-dasharray:none;stroke-opacity:1;paint-order:stroke fill markers"
       d="m 112,87.999998 1,1"
       id="path52" />
    <path
       style="fill:none;fill-opacity:1;stroke:#000000;stroke-width:0.529;stroke-linecap:round;stroke-linejoin:round;stroke-dasharray:none;stroke-opacity:1;paint-order:stroke fill markers"
       d="m 114,88.999998 -1,-1"
       id="path53" />
    <path
       style="fill:none;fill-opacity:1;stroke:#000000;stroke-width:0.529;stroke-linecap:round;stroke-linejoin:round;stroke-dasharray:none;stroke-opacity:1;paint-order:stroke fill markers"
       d="m 114,87.999998 h 2 l -2,2.000001 h 2 V 91 h -1 v -1.000001"
       id="path54" />
    <path
       style="fill:none;stroke:#000000;stroke-width:0.529;stroke-linecap:round;stroke-linejoin:round;stroke-dasharray:none;paint-order:stroke fill markers"
       d="M 117,89.999999 119,90"
       id="path55"
       sodipodi:nodetypes="cc" />
    <path
       style="fill:none;stroke:#000000;stroke-width:0.529;stroke-linecap:round;stroke-linejoin:round;stroke-dasharray:none;paint-order:stroke fill markers"
       d="M 117,89.999999 119,90"
       id="path56"
       sodipodi:nodetypes="cc" />
    <path
       style="fill:none;stroke:#000000;stroke-width:0.529;stroke-linecap:round;stroke-linejoin:round;stroke-dasharray:none;paint-order:stroke fill markers"
       d="m 117,89 2,10e-7"
       id="path57"
       sodipodi:nodetypes="cc" />
    <path
       style="fill:none;stroke:#000000;stroke-width:0.529;stroke-linecap:round;stroke-linejoin:round;stroke-dasharray:none;paint-order:stroke fill markers"
       d="m 117,88 2,10e-7"
       id="path58"
       sodipodi:nodetypes="cc" />
    <path
       style="fill:none;stroke:#45ccc7;stroke-width:0.529;stroke-linecap:round;stroke-linejoin:round;stroke-dasharray:none;paint-order:stroke fill markers;stroke-opacity:1"
       d="m 120,79.999998 v 3 l 2,-3 v 2.999999 l 3,1e-6"
       id="path59"
       sodipodi:nodetypes="ccccc" />
    <path
       style="fill:none;stroke:#000000;stroke-width:0.529;stroke-linecap:round;stroke-linejoin:round;stroke-dasharray:none;paint-order:stroke fill markers"
       d="m 123,81.999997 2,1e-6"
       id="path60"
       sodipodi:nodetypes="cc" />
    <path
       style="fill:none;stroke:#00222b;stroke-width:0.529;stroke-linecap:round;stroke-linejoin:round;stroke-dasharray:none;paint-order:stroke fill markers;stroke-opacity:1"
       d="m 123,81.999997 2,1e-6"
       id="path61"
       sodipodi:nodetypes="cc" />
    <path
       style="fill:none;stroke:#ef64e2;stroke-width:0.529;stroke-linecap:round;stroke-linejoin:round;stroke-dasharray:none;paint-order:stroke fill markers;stroke-opacity:1"
       d="m 123,80.999998 2,10e-7"
       id="path62"
       sodipodi:nodetypes="cc" />
    <path
       style="fill:none;stroke:#00222b;stroke-width:0.529;stroke-linecap:round;stroke-linejoin:round;stroke-dasharray:none;paint-order:stroke fill markers;stroke-opacity:1"
       d="m 123,79.999998 2,10e-7"
       id="path63"
       sodipodi:nodetypes="cc" />
  </g>
</svg>
